<?xml version="1.0" standalone="no"?>
<!DOCTYPE svg PUBLIC "-//W3C//DTD SVG 20010904//EN"
 "http://www.w3.org/TR/2001/REC-SVG-20010904/DTD/svg10.dtd">
<svg version="1.0" xmlns="http://www.w3.org/2000/svg"
 width="2048.000000pt" height="2048.000000pt" viewBox="0 0 2048.000000 2048.000000"
 preserveAspectRatio="xMidYMid meet">
<metadata>
Created by potrace 1.14, written by Peter Selinger 2001-2017
</metadata>
<g transform="translate(0.000000,2048.000000) scale(0.100000,-0.100000)"
fill="#000000" stroke="none">
<path d="M9545 20459 c-2169 -155 -4206 -972 -5865 -2355 -464 -387 -917 -840
-1304 -1304 -1312 -1574 -2128 -3520 -2326 -5540 -15 -162 -39 -460 -40 -502
0 -5 1062 -8 2360 -8 l2360 0 0 -510 0 -510 -2360 0 -2361 0 6 -73 c58 -770
133 -1261 286 -1880 502 -2028 1617 -3861 3184 -5233 1545 -1354 3446 -2209
5479 -2464 199 -25 347 -39 689 -65 l67 -5 0 2555 0 2555 510 0 510 0 0 -2553
0 -2552 48 3 c714 40 1426 153 2094 332 1554 416 2978 1187 4193 2269 168 149
637 618 786 786 1365 1532 2227 3384 2514 5400 48 337 66 521 72 737 l6 188
-2357 0 -2356 0 0 146 c0 85 -5 164 -12 187 -21 71 -79 119 -293 245 l-200
118 -3 162 -2 162 2610 0 c2369 0 2611 1 2617 16 16 42 -31 568 -83 934 -373
2629 -1781 5034 -3899 6662 -1557 1196 -3467 1933 -5400 2082 -110 9 -230 18
-267 21 l-68 5 0 -2555 0 -2555 -510 0 -510 0 0 2555 0 2555 -27 -1 c-16 -1
-82 -6 -148 -10z m-1620 -8598 c460 -107 787 -360 976 -755 240 -502 236
-1153 -10 -1672 -172 -363 -483 -624 -877 -739 -170 -49 -253 -59 -479 -59
-242 0 -329 12 -516 74 -512 168 -843 554 -967 1129 -25 120 -27 140 -27 396
1 256 2 277 28 400 77 361 209 626 416 834 208 210 500 353 826 406 137 22
509 14 630 -14z"/>
<path d="M7450 11353 c-333 -44 -589 -263 -704 -601 -143 -419 -88 -941 130
-1248 116 -164 307 -288 499 -325 75 -14 300 -11 377 5 150 33 268 97 383 211
137 135 215 290 267 527 19 89 22 134 23 323 0 242 -9 313 -66 500 -93 304
-297 516 -566 586 -77 20 -267 33 -343 22z"/>
</g>
</svg>
